<svg id="Layer_1" data-name="Layer 1" xmlns="http://www.w3.org/2000/svg" viewBox="0 0 697.42 389.54"><defs><style>.cls-1{fill:#4eafc6;}.cls-2{fill:#e9533c;}.cls-3{fill:#f4bb19;}.cls-4{fill:#f3bb1a;}.cls-5{fill:#c42127;}.cls-6{fill:#67455b;}.cls-7{fill:#0e6497;}.cls-10,.cls-8{fill:#333;}.cls-9{fill:#fff;}.cls-10{font-size:72px;font-family:Poppins-Black, Poppins;letter-spacing:0.02em;}.cls-10,.cls-11{font-weight:800;}.cls-11{font-size:48px;fill:#231f20;font-family:Rokkitt-Black, Rokkitt;}</style></defs><path class="cls-1" d="M614.66,135.22a23.81,23.81,0,1,1-23.81-23.81,23.81,23.81,0,0,1,23.81,23.81" transform="translate(-12.61 -12.45)"/><path class="cls-2" d="M669.3,215.69A10.32,10.32,0,1,1,659,205.37a10.32,10.32,0,0,1,10.32,10.32" transform="translate(-12.61 -12.45)"/><path class="cls-2" d="M508.65,30.08a10.32,10.32,0,1,1-10.31-10.31,10.32,10.32,0,0,1,10.31,10.31" transform="translate(-12.61 -12.45)"/><path class="cls-3" d="M533,215.69a10.32,10.32,0,1,1-10.31-10.32A10.32,10.32,0,0,1,533,215.69" transform="translate(-12.61 -12.45)"/><path class="cls-4" d="M693.68,30.08a10.32,10.32,0,1,1-10.32-10.31,10.32,10.32,0,0,1,10.32,10.31" transform="translate(-12.61 -12.45)"/><path class="cls-5" d="M508.9,135.22a8.51,8.51,0,1,1-8.51-8.52,8.51,8.51,0,0,1,8.51,8.52" transform="translate(-12.61 -12.45)"/><path class="cls-6" d="M689.82,135.22a8.51,8.51,0,1,1-8.51-8.52,8.51,8.51,0,0,1,8.51,8.52" transform="translate(-12.61 -12.45)"/><path class="cls-7" d="M599.36,43.59a8.52,8.52,0,1,1-8.52-8.51,8.51,8.51,0,0,1,8.52,8.51" transform="translate(-12.61 -12.45)"/><path class="cls-8" d="M681.31,141.09a5.88,5.88,0,1,1,5.87-5.87,5.89,5.89,0,0,1-5.87,5.87m-81.65,14.69h-.59v.29a23.75,23.75,0,0,1-16.45,0v-.29H582a22.34,22.34,0,1,1,31.13-20.56,22.62,22.62,0,0,1-13.51,20.56m-99.27-14.69a5.88,5.88,0,1,1,5.87-5.87,5.89,5.89,0,0,1-5.87,5.87m81.94-97.5a8.52,8.52,0,1,1,8.52,8.51,8.51,8.51,0,0,1-8.52-8.51M659,207.17a8.52,8.52,0,1,1-8.51,8.52,8.72,8.72,0,0,1,8.51-8.52m-136.26,17a8.52,8.52,0,1,1,8.51-8.51,8.72,8.72,0,0,1-8.51,8.51M498.34,23.33a6.76,6.76,0,1,1-6.76,6.75,6.64,6.64,0,0,1,6.76-6.75m185,0a6.76,6.76,0,1,1,0,13.51,6.64,6.64,0,0,1-6.75-6.76,7,7,0,0,1,6.75-6.75m-2.05,95.45a16.82,16.82,0,0,0-15.57,11.16H623.15a32.93,32.93,0,0,0-7-15.57v-20a12.11,12.11,0,0,1,12-12.05h38.46a22.62,22.62,0,0,0,22.62-22.61V46.23A17.3,17.3,0,0,0,684,12.45a17.17,17.17,0,0,0-17.32,17.32,17.37,17.37,0,0,0,12.05,16.46V59.74a12.11,12.11,0,0,1-12.05,12.05H627.86A22.62,22.62,0,0,0,605.25,94.4v11.45a27.18,27.18,0,0,0-9.39-2.94l0-40.82a19.09,19.09,0,1,0-10.58,0v40.82a34.9,34.9,0,0,0-9.39,2.94V94.4a22.62,22.62,0,0,0-22.61-22.61H515.37a12.11,12.11,0,0,1-12-12.05V46.23a17.32,17.32,0,1,0-10.56,0V59.74a22.63,22.63,0,0,0,22.62,22.61h38.47a12.11,12.11,0,0,1,12,12.05v20a32.83,32.83,0,0,0-7,15.57H516a16.45,16.45,0,1,0-15.58,21.74A16.83,16.83,0,0,0,516,140.52h42.58A32.28,32.28,0,0,0,572.06,162v33.78a14.73,14.73,0,0,1-14.68,14.68H540.93a19.09,19.09,0,1,0,0,10.58h16.45a25.27,25.27,0,0,0,25.26-25.26V166.94a36.88,36.88,0,0,0,8.23,1.17,25.67,25.67,0,0,0,8.22-1.17v28.79A25.27,25.27,0,0,0,624.36,221h16.42A19.23,19.23,0,0,0,659,234.79a19.09,19.09,0,1,0-18.21-24.38H624.33a14.73,14.73,0,0,1-14.68-14.68V162.25a32.94,32.94,0,0,0,13.51-21.44h42.59a16.49,16.49,0,1,0,15.57-22Z" transform="translate(-12.61 -12.45)"/><path class="cls-4" d="M360.42,97.75c-.48,32-14.51,47.11-39.83,54.14-12,3.33-22.64,12.74-16.41,27.19,5.84,13.57,18.76,13.16,31.25,9.23C373.79,176.26,388.73,133.34,360.42,97.75Z" transform="translate(-12.61 -12.45)"/><path class="cls-4" d="M12.7,288.33C35,265.56,56.56,265.72,80.08,278c10,5.23,22.76,6.27,29.09-6.16,6.89-13.54-1.54-23.31-12.94-29.2-21.28-11-42.88-8.72-63.52,2.25C17.35,253,11.79,266.5,12.7,288.33Z" transform="translate(-12.61 -12.45)"/><path class="cls-4" d="M55.07,133.36C90.73,129,103.33,146,110.93,170.5c3.64,11.7,11.41,23.46,26.29,17.74,15.09-5.81,15.25-19.47,10.68-32.87C135.1,117.88,91.25,103.6,55.07,133.36Z" transform="translate(-12.61 -12.45)"/><path class="cls-4" d="M439.61,237.83c-21.1,28-41.9,27.31-65.09,14.95-11.85-6.31-26.53-10.14-32.48,6.93-5.84,16.77,6.24,25.63,20.49,30.47C402.26,303.68,435.76,284.18,439.61,237.83Z" transform="translate(-12.61 -12.45)"/><path class="cls-4" d="M202.76,54c22.46,21.07,19.45,40.59,8.78,61.33-6.24,12.13-9.25,26.81,6.8,33.14,17,6.72,25.4-6.62,30.56-20.2C263.13,90.76,243,54.09,202.76,54Z" transform="translate(-12.61 -12.45)"/><path class="cls-4" d="M325.08,265.89a97.5,97.5,0,1,1-97.5-97.5A97.5,97.5,0,0,1,325.08,265.89Z" transform="translate(-12.61 -12.45)"/><rect class="cls-9" x="99.05" y="287.98" width="237.47" height="76.97"/><rect class="cls-1" x="440.84" y="225.66" width="256.11" height="50.52"/><text class="cls-10" transform="translate(1.33 344.39)">Summer Institute</text><text class="cls-11" transform="translate(516.89 265.02)">DEH</text></svg>